<?xml version="1.0" encoding="UTF-8" standalone="no"?>
<svg width="1051px" height="356px" viewBox="0 0 1051 356" version="1.1" xmlns="http://www.w3.org/2000/svg" xmlns:xlink="http://www.w3.org/1999/xlink" xmlns:sketch="http://www.bohemiancoding.com/sketch/ns">
    <!-- Generator: Sketch 3.4.2 (15857) - http://www.bohemiancoding.com/sketch -->
    <title>App Store</title>
    <desc>Created with Sketch.</desc>
    <defs></defs>
    <g id="Page-1" stroke="none" stroke-width="1" fill="none" fill-rule="evenodd" sketch:type="MSPage">
        <g id="App-Store" sketch:type="MSLayerGroup">
            <rect id="background" fill="#000000" sketch:type="MSShapeGroup" x="0" y="0" width="1051" height="356" rx="60"></rect>
            <g id="icon" transform="translate(92.216655, 62.656000)" fill="#FFFFFF" sketch:type="MSShapeGroup">
                <path d="M137.865366,107.194612 C137.636373,81.7296669 158.703751,69.3408883 159.667101,68.7641148 C147.735764,51.3581969 129.242586,48.9799939 122.743916,48.7903697 C107.211857,47.1548613 92.1456814,58.0898547 84.2335703,58.0898547 C76.1635327,58.0898547 63.9795132,48.9483898 50.8479354,49.2170241 C33.9498137,49.4777573 18.1413839,59.2671047 9.47122615,74.4686417 C-8.4218317,105.464291 4.92294666,151.013595 22.0658542,176.067688 C30.6412562,188.345852 40.6616845,202.038297 53.7774696,201.556335 C66.6089872,201.034869 71.4020526,193.370892 86.8867333,193.370892 C102.22928,193.370892 106.730182,201.556335 120.106545,201.240295 C133.877725,201.034869 142.547883,188.922626 150.823225,176.533847 C160.733104,162.485857 164.712849,148.61959 164.870775,147.9085 C164.554923,147.805786 138.133841,137.716201 137.865366,107.194612" id="Fill-2"></path>
                <path d="M112.597147,32.3088696 C119.498529,23.6730692 124.220527,11.9242722 122.909739,0.00165295267 C112.920896,0.444109331 100.42892,6.91503387 93.2353734,15.3612101 C86.8709406,22.8039585 81.1855913,35.0031129 82.6543065,46.4753747 C93.8749752,47.3128814 105.395704,40.8103529 112.597147,32.3088696" id="Fill-3"></path>
            </g>
            <g transform="translate(326.614083, 155.216000)" fill="#FFFFFF" sketch:type="MSShapeGroup">
                <path d="M89.3235886,107.234411 L71.3910491,107.234411 L61.5680288,76.3493755 L27.4243474,76.3493755 L18.0672099,107.234411 L0.60844957,107.234411 L34.4441746,2.08781295 L55.3378335,2.08781295 L89.3235886,107.234411 L89.3235886,107.234411 Z M58.6069094,63.3917244 L49.723551,35.9436269 C48.7838891,33.1308685 47.0151137,26.5256269 44.4251212,16.127902 L44.1092685,16.127902 C43.0669545,20.5998718 41.4008312,27.2051134 39.1187952,35.9436269 L30.3854669,63.3917244 L58.6069094,63.3917244 L58.6069094,63.3917244 Z" id="Fill-4"></path>
                <path d="M176.1673,68.3930617 C176.1673,81.2875047 172.669231,91.4798035 165.665196,98.9620569 C159.395519,105.622606 151.601853,108.948929 142.307886,108.948929 C132.271665,108.948929 125.05443,105.369773 120.671973,98.1877582 L120.671973,137.969327 L103.837022,137.969327 L103.837022,56.3361254 C103.837022,48.2375934 103.623821,39.9336353 103.213213,31.4163501 L118.01881,31.4163501 L118.958472,43.4416823 L119.274325,43.4416823 C124.888607,34.3792276 133.408735,29.8519507 144.842604,29.8519507 C153.781237,29.8519507 161.243258,33.3837007 167.212875,40.4551018 C173.174595,47.5423049 176.1673,56.8496908 176.1673,68.3930617 L176.1673,68.3930617 Z M159.016496,69.0093402 C159.016496,61.6297999 157.358269,55.5460247 154.026023,50.7580146 C150.38582,45.7724793 145.497999,43.2678602 139.370456,43.2678602 C135.216992,43.2678602 131.442552,44.6584374 128.070824,47.4079877 C124.691199,50.1654391 122.48023,53.7761992 121.445812,58.25607 C120.924655,60.3340348 120.664077,62.0327513 120.664077,63.3759224 L120.664077,76.0333352 C120.664077,81.5324359 122.353889,86.1861289 125.733513,89.9944142 C129.113138,93.7868974 133.503491,95.6910401 138.904573,95.6910401 C145.245317,95.6910401 150.180516,93.233827 153.71017,88.3589058 C157.247721,83.4681826 159.016496,77.0209611 159.016496,69.0093402 L159.016496,69.0093402 Z" id="Fill-5"></path>
                <path d="M263.318968,68.3930617 C263.318968,81.2875047 259.820899,91.4798035 252.816864,98.9620569 C246.539291,105.622606 238.753521,108.948929 229.451658,108.948929 C219.423333,108.948929 212.206098,105.369773 207.815745,98.1877582 L207.815745,137.969327 L190.980794,137.969327 L190.980794,56.3361254 C190.980794,48.2375934 190.767593,39.9336353 190.356985,31.4163501 L205.162582,31.4163501 L206.102244,43.4416823 L206.418096,43.4416823 C212.024483,34.3792276 220.54461,29.8519507 231.986376,29.8519507 C240.917112,29.8519507 248.38703,33.3837007 254.364543,40.4551018 C260.318367,47.5423049 263.318968,56.8496908 263.318968,68.3930617 L263.318968,68.3930617 Z M246.160268,69.0093402 C246.160268,61.6297999 244.494145,55.5460247 241.161898,50.7580146 C237.529592,45.7724793 232.649667,43.2678602 226.522123,43.2678602 C222.36866,43.2678602 218.59422,44.6584374 215.206699,47.4079877 C211.834971,50.1654391 209.624002,53.7761992 208.589584,58.25607 C208.076323,60.3340348 207.799952,62.0327513 207.799952,63.3759224 L207.799952,76.0333352 C207.799952,81.5324359 209.497661,86.1861289 212.861492,89.9944142 C216.241117,93.7789964 220.63147,95.6910401 226.048344,95.6910401 C232.396985,95.6910401 237.332184,93.233827 240.853942,88.3589058 C244.391492,83.4681826 246.160268,77.0209611 246.160268,69.0093402 L246.160268,69.0093402 Z" id="Fill-6"></path>
                <path d="M360.759539,77.7478537 C360.759539,86.6917934 357.640493,93.9686206 351.418194,99.5862364 C344.579982,105.717418 335.033333,108.790909 322.794039,108.790909 C311.486511,108.790909 302.421537,106.610231 295.583326,102.240975 L299.476211,88.2008856 C306.859269,92.5701424 314.968788,94.7587213 323.796872,94.7587213 C330.145512,94.7587213 335.080711,93.320738 338.602469,90.4684746 C342.14002,87.6004091 343.916691,83.7842229 343.916691,79.0120148 C343.916691,74.7375701 342.447976,71.1505131 339.542131,68.2350416 C336.628389,65.3353721 331.811635,62.6174258 325.052386,60.1365096 C306.653964,53.2705348 297.446857,43.2204542 297.446857,30.0178719 C297.446857,21.3899725 300.70014,14.3264724 307.183018,8.8036687 C313.673791,3.28876598 322.280779,0.531314621 332.988187,0.531314621 C342.550628,0.531314621 350.518014,2.19842705 356.842965,5.52475089 L352.618435,19.2567006 C346.66461,16.0330899 339.944843,14.4212845 332.427548,14.4212845 C326.489516,14.4212845 321.822792,15.8829708 318.498442,18.7905412 C315.695249,21.3899725 314.266015,24.5582762 314.266015,28.3191554 C314.266015,32.467184 315.884761,35.9120229 319.114355,38.6062662 C321.909652,41.1029843 327.010673,43.8130297 334.385835,46.7206002 C343.435016,50.3708653 350.07582,54.6216069 354.339832,59.5044291 C358.627533,64.3872513 360.759539,70.4789275 360.759539,77.7478537" id="Fill-7"></path>
                <path d="M416.562822,44.0579609 L398.006474,44.0579609 L398.006474,80.8687514 C398.006474,90.2314444 401.275549,94.9009394 407.829494,94.9009394 C410.837991,94.9009394 413.333228,94.6481072 415.307308,94.1187397 L415.77319,106.91047 C412.456737,108.150928 408.090072,108.775107 402.688991,108.775107 C396.032394,108.775107 390.844513,106.736648 387.085865,102.683431 C383.34301,98.6223136 381.471583,91.8195467 381.471583,82.2435266 L381.471583,44.0263568 L370.424633,44.0263568 L370.424633,31.384746 L381.471583,31.384746 L381.471583,17.5026771 L398.006474,12.5092409 L398.006474,31.384746 L416.562822,31.384746 L416.562822,44.0579609" id="Fill-8"></path>
                <path d="M500.121665,68.701201 C500.121665,80.3551859 496.797315,89.9233051 490.140719,97.4055585 C483.184062,105.101139 473.929577,108.948929 462.393055,108.948929 C451.259246,108.948929 442.407473,105.259159 435.806151,97.8796189 C429.204828,90.5000786 425.904167,81.1926927 425.904167,69.965362 C425.904167,58.216565 429.323273,48.5931388 436.114107,41.1108853 C442.920734,33.6286319 452.096256,29.8756537 463.632777,29.8756537 C474.75869,29.8756537 483.68153,33.5812259 490.448675,40.9528652 C496.907864,48.1190783 500.121665,57.3553553 500.121665,68.701201 L500.121665,68.701201 Z M482.670801,69.0883503 C482.670801,62.1433653 481.170501,56.1860063 478.162003,51.200471 C474.632349,45.1799038 469.570809,42.1775213 463.032657,42.1775213 C456.297097,42.1775213 451.109216,45.1799038 447.595354,51.200471 C444.571064,56.1860063 443.07866,62.2460784 443.07866,69.4043906 C443.07866,76.3572765 444.571064,82.3304376 447.595354,87.2922699 C451.235557,93.320738 456.31289,96.3310216 462.89842,96.3310216 C469.326023,96.3310216 474.37177,93.249629 478.027766,87.1500518 C481.115226,82.0460014 482.670801,76.0491373 482.670801,69.0883503 L482.670801,69.0883503 Z" id="Fill-9"></path>
                <path d="M554.866842,46.2307377 C553.200719,45.9225985 551.416151,45.7724793 549.560516,45.7724793 C543.638277,45.7724793 539.058412,47.9926622 535.836714,52.4804341 C533.033521,56.4309375 531.635873,61.4243737 531.635873,67.4528419 L531.635873,107.234411 L514.800921,107.234411 L514.800921,55.2931925 C514.800921,46.56258 514.635099,38.5904642 514.31135,31.4242511 L528.974813,31.4242511 L529.590726,45.9304995 L530.056609,45.9304995 C531.841177,40.9449642 534.636474,36.9233518 538.474084,33.9209692 C542.232732,31.2030229 546.275647,29.8519507 550.642311,29.8519507 C552.197886,29.8519507 553.603431,29.9704658 554.851049,30.16009 L554.866842,46.2307377" id="Fill-10"></path>
                <path d="M630.158239,65.7383234 C630.158239,68.756508 629.960831,71.3006322 629.542326,73.378597 L579.045369,73.378597 C579.226985,80.8687514 581.68274,86.6048823 586.365256,90.5553857 C590.621372,94.0792347 596.133003,95.8490602 602.884355,95.8490602 C610.362169,95.8490602 617.184588,94.6639092 623.320027,92.2620031 L625.957398,103.955493 C618.78754,107.076391 610.314791,108.64079 600.554941,108.64079 C588.805219,108.64079 579.582319,105.180149 572.870448,98.2746693 C566.182266,91.3612884 562.818435,82.0618034 562.818435,70.4315214 C562.818435,59.0066657 565.929584,49.4859525 572.183468,41.893085 C578.72162,33.7866521 587.557601,29.7334356 598.675617,29.7334356 C609.596226,29.7334356 617.863671,33.7866521 623.470057,41.893085 C627.923581,48.3166035 630.158239,56.2808183 630.158239,65.7383234 L630.158239,65.7383234 Z M614.105024,61.3690667 C614.223468,56.3677294 613.117984,52.0695817 610.835948,48.4193166 C607.922206,43.7261186 603.437097,41.3874206 597.427999,41.3874206 C591.916368,41.3874206 587.439156,43.6708115 584.027946,48.2533955 C581.224753,51.8957596 579.55863,56.2808183 579.045369,61.3532647 L614.105024,61.3690667 L614.105024,61.3690667 Z" id="Fill-11"></path>
            </g>
            <g id="Available-on-the" transform="translate(333.018280, 64.792000)" fill="#FFFFFF" sketch:type="MSShapeGroup">
                <path d="M44.0852962,54.8793177 L35.2651084,54.8793177 L30.4404577,39.7014838 L13.6607808,39.7014838 L9.05722708,54.8793177 L0.473928807,54.8793177 L17.1035757,3.19883252 L27.3687898,3.19883252 L44.0852962,54.8793177 L44.0852962,54.8793177 Z M28.9875351,33.3332723 L24.620871,19.8383528 C24.1628845,18.4556766 23.3179784,15.2399668 22.0150858,10.1043124 L21.8571595,10.1043124 C21.3202098,12.3244953 20.5542669,15.5481061 19.4014044,19.8383528 L15.1137034,33.3332723 L28.9875351,33.3332723 L28.9875351,33.3332723 Z" id="Fill-12"></path>
                <path d="M85.6673097,17.6181699 L71.5644848,54.8793177 L63.5181362,54.8793177 L49.8732977,17.6181699 L58.7645524,17.6181699 L65.1289852,37.3232807 C66.2028845,40.6180005 67.1188574,43.7626012 67.8058371,46.7491818 L68.0348304,46.7491818 C68.6507432,44.0707405 69.5667162,40.9261398 70.7116824,37.3232807 L76.9971519,17.6181699 L85.6673097,17.6181699" id="Fill-13"></path>
                <path d="M115.689113,54.8793177 L115.0732,50.5890711 L114.844207,50.5890711 C112.317385,54.041811 108.6377,55.7247255 103.96308,55.7247255 C97.298587,55.7247255 92.5450032,51.0473295 92.5450032,44.7581281 C92.5450032,35.5613562 100.512389,30.8049501 114.307257,30.8049501 L114.307257,30.1175626 C114.307257,25.2110374 111.701472,22.7538243 106.568865,22.7538243 C102.88918,22.7538243 99.6674825,23.678242 96.8406005,25.5191766 L95.1586846,20.075383 C98.6093758,17.9263091 102.897077,16.8517722 107.958617,16.8517722 C117.686881,16.8517722 122.598392,21.9874266 122.598392,32.2666364 L122.598392,45.9906851 C122.598392,49.7515644 122.756318,52.6670359 123.135341,54.8872188 L115.689113,54.8793177 L115.689113,54.8793177 Z M114.53625,36.3198529 C105.337039,36.3198529 100.741382,38.5479368 100.741382,43.8337103 C100.741382,47.7447086 103.118174,49.6567523 106.410939,49.6567523 C110.627573,49.6567523 114.53625,46.4410425 114.53625,42.0717858 L114.53625,36.3198529 L114.53625,36.3198529 Z" id="Fill-14"></path>
                <path d="M141.028399,11.4790876 C138.272584,11.4790876 136.124785,9.33001376 136.124785,6.49355234 C136.124785,3.65709091 138.343651,1.58702714 141.186326,1.58702714 C144.021104,1.58702714 146.318933,3.65709091 146.239969,6.49355234 C146.239969,9.4880339 144.100067,11.4790876 141.028399,11.4790876 L141.028399,11.4790876 Z M137.048655,17.6181699 L145.323996,17.6181699 L145.323996,54.8793177 L137.048655,54.8793177 L137.048655,17.6181699 Z" id="Fill-15"></path>
                <path d="M160.026942,0.520391225 L168.302283,0.520391225 L168.302283,54.8793177 L160.026942,54.8793177 L160.026942,0.520391225 Z" id="Fill-16"></path>
                <path d="M203.472486,54.8793177 L202.848677,50.5890711 L202.62758,50.5890711 C200.100758,54.041811 196.421074,55.7247255 191.746453,55.7247255 C185.08196,55.7247255 180.328377,51.0473295 180.328377,44.7581281 C180.328377,35.5613562 188.295762,30.8049501 202.090631,30.8049501 L202.090631,30.1175626 C202.090631,25.2110374 199.484845,22.7538243 194.352238,22.7538243 C190.672554,22.7538243 187.450856,23.678242 184.623974,25.5191766 L182.934162,20.067482 C186.384853,17.9184081 190.672554,16.8438712 195.734094,16.8438712 C205.462359,16.8438712 210.381765,21.9795256 210.381765,32.2587354 L210.381765,45.9827841 C210.381765,49.7436634 210.539691,52.6591348 210.902922,54.8793177 L203.472486,54.8793177 L203.472486,54.8793177 Z M202.319624,36.3198529 C193.120413,36.3198529 188.524755,38.5479368 188.524755,43.8337103 C188.524755,47.7447086 190.901547,49.6567523 194.194312,49.6567523 C198.410946,49.6567523 202.319624,46.4410425 202.319624,42.0717858 L202.319624,36.3198529 L202.319624,36.3198529 Z" id="Fill-17"></path>
                <path d="M243.901637,55.7247255 C238.619,55.7247255 234.718219,53.4966416 232.183501,49.1273848 L232.025574,49.1273848 L231.551795,54.8793177 L224.508279,54.8793177 C224.729376,51.8927372 224.808339,48.5111063 224.808339,44.8371382 L224.808339,0.520391225 L233.099474,0.520391225 L233.099474,23.0698645 L233.249504,23.0698645 C235.705259,18.929737 239.685003,16.8596732 245.125567,16.8596732 C254.095785,16.8596732 260.381254,24.5315508 260.381254,35.7193763 C260.381254,47.2864502 253.400909,55.7247255 243.901637,55.7247255 L243.901637,55.7247255 Z M242.219721,23.3622018 C237.458241,23.3622018 233.099474,27.5023293 233.099474,33.2542622 L233.099474,39.7725928 C233.099474,44.9082472 237.016048,49.1273848 242.069691,49.1273848 C248.268301,49.1273848 251.963779,44.0707405 251.963779,36.0196146 C251.955882,28.5057572 248.118271,23.3622018 242.219721,23.3622018 L242.219721,23.3622018 Z" id="Fill-18"></path>
                <path d="M272.628444,0.520391225 L280.89589,0.520391225 L280.89589,54.8793177 L272.628444,54.8793177 L272.628444,0.520391225 Z" id="Fill-19"></path>
                <path d="M325.936491,38.2397975 L301.094673,38.2397975 C301.260495,45.2953965 305.919323,49.277504 312.812809,49.277504 C316.50039,49.277504 319.872118,48.6612254 322.856927,47.5155794 L324.144026,53.2675124 C320.622268,54.8003077 316.484597,55.5667053 311.659947,55.5667053 C300.004981,55.5667053 293.111495,48.202967 293.111495,36.7860123 C293.111495,25.3611565 300.170803,16.7727621 310.736078,16.7727621 C320.227452,16.7727621 326.220758,23.8283612 326.220758,34.4868193 C326.244447,35.9406045 326.17338,37.2442707 325.936491,38.2397975 L325.936491,38.2397975 Z M318.356025,32.3377455 C318.356025,26.5858125 315.434387,22.5246951 310.143854,22.5246951 C305.39027,22.5246951 301.647415,26.6648226 301.094673,32.3377455 L318.356025,32.3377455 L318.356025,32.3377455 Z" id="Fill-20"></path>
                <path d="M376.093906,55.7247255 C365.212779,55.7247255 358.161367,47.5945895 358.161367,36.5568831 C358.161367,25.0530172 365.362809,16.8517722 376.717715,16.8517722 C387.43302,16.8517722 394.650255,24.5947588 394.650255,35.9485055 C394.650255,47.5945895 387.211923,55.7247255 376.093906,55.7247255 L376.093906,55.7247255 Z M376.409759,22.9039434 C370.432246,22.9039434 366.602531,28.4978562 366.602531,36.3198529 C366.602531,43.9917304 370.511209,49.5856432 376.330796,49.5856432 C382.150383,49.5856432 386.05906,43.6045811 386.05906,36.1618327 C386.05906,28.5768662 382.229346,22.9039434 376.409759,22.9039434 L376.409759,22.9039434 Z" id="Fill-21"></path>
                <path d="M439.138114,54.8793177 L430.878564,54.8793177 L430.878564,33.4833914 C430.878564,26.8939518 428.343846,23.591331 423.361269,23.591331 C418.457655,23.591331 415.078031,27.8104686 415.078031,32.7169938 L415.078031,54.8793177 L406.818482,54.8793177 L406.818482,28.268727 C406.818482,24.9740072 406.723726,21.4422571 406.502629,17.6102689 L413.783035,17.6102689 L414.169954,23.3622018 L414.406844,23.3622018 C416.609917,19.3800944 421.142404,16.8438712 426.203944,16.8438712 C434.005507,16.8438712 439.138114,22.8249333 439.138114,32.5589736 L439.138114,54.8793177" id="Fill-22"></path>
                <path d="M493.28317,23.8283612 L484.178715,23.8283612 L484.178715,41.9216667 C484.178715,46.5279536 485.781667,48.8271466 488.995469,48.8271466 C490.448392,48.8271466 491.688114,48.6691264 492.675153,48.4399972 L492.904147,54.7291986 C491.293298,55.3454771 489.137603,55.6536164 486.476543,55.6536164 C479.946288,55.6536164 476.061299,52.0507573 476.061299,42.6169553 L476.061299,23.8283612 L470.636528,23.8283612 L470.636528,17.6181699 L476.061299,17.6181699 L476.061299,10.7917 L484.178715,8.33448691 L484.178715,17.6102689 L493.28317,17.6102689 L493.28317,23.8283612" id="Fill-23"></path>
                <path d="M537.107738,54.8793177 L528.8245,54.8793177 L528.8245,33.6414116 C528.8245,26.9729619 526.289782,23.599232 521.315101,23.599232 C517.0274,23.599232 513.047655,26.5147035 513.047655,32.4167555 L513.047655,54.8793177 L504.764417,54.8793177 L504.764417,0.520391225 L513.047655,0.520391225 L513.047655,22.9039434 L513.205582,22.9039434 C515.803471,18.8428259 519.570014,16.8438712 524.394665,16.8438712 C532.283087,16.8438712 537.107738,22.9750524 537.107738,32.7169938 L537.107738,54.8793177" id="Fill-24"></path>
                <path d="M579.392524,38.2397975 L554.558602,38.2397975 C554.716528,45.2953965 559.375356,49.277504 566.276739,49.277504 C569.972216,49.277504 573.336048,48.6612254 576.305063,47.5155794 L577.60006,53.2675124 C574.086198,54.8003077 569.940631,55.5667053 565.108084,55.5667053 C553.461014,55.5667053 546.567528,48.202967 546.567528,36.7860123 C546.567528,25.3611565 553.61894,16.7727621 564.184214,16.7727621 C573.683486,16.7727621 579.668895,23.8283612 579.668895,34.4868193 C579.70048,35.9406045 579.621517,37.2442707 579.392524,38.2397975 L579.392524,38.2397975 Z M571.804162,32.3377455 C571.804162,26.5858125 568.898316,22.5246951 563.607783,22.5246951 C558.854199,22.5246951 555.103448,26.6648226 554.558602,32.3377455 L571.804162,32.3377455 L571.804162,32.3377455 Z" id="Fill-25"></path>
            </g>
        </g>
    </g>
</svg>