<?xml version="1.0" encoding="UTF-8"?>
<svg width="135px" height="182px" viewBox="0 0 135 182" version="1.1" xmlns="http://www.w3.org/2000/svg" xmlns:xlink="http://www.w3.org/1999/xlink">
    <!-- Generator: Sketch 40.3 (33839) - http://www.bohemiancoding.com/sketch -->
    <title>cbc_television_2009</title>
    <desc>Created with Sketch.</desc>
    <defs></defs>
    <g id="Page-1" stroke="none" stroke-width="1" fill="none" fill-rule="evenodd">
        <g id="Artboard-Copy-4">
            <g id="cbc_television_2009">
                <path d="M67.321,91.382 C80.61,91.382 91.382,80.612 91.382,67.326 C91.382,54.035 80.611,43.265 67.321,43.265 C54.03,43.265 43.254,54.035 43.254,67.326 C43.253,80.612 54.03,91.382 67.321,91.382 L67.321,91.382 Z" id="Shape" fill="#FFFFFF"></path>
                <path d="M39.539,91.382 C26.245,91.382 15.471,80.612 15.471,67.326 C15.471,54.035 26.245,43.256 39.539,43.256 L39.539,91.382 L39.539,91.382 Z" id="Shape" fill="#FFFFFF"></path>
                <path d="M95.102,117.927 L95.102,95.095 L117.944,95.11 C117.944,107.722 107.714,117.927 95.102,117.927 L95.102,117.927 Z" id="Shape" fill="#FFFFFF"></path>
                <path d="M39.539,16.696 L39.539,39.556 L16.667,39.558 C16.667,26.933 26.909,16.696 39.539,16.696" id="Shape" fill="#FFFFFF"></path>
                <path d="M39.539,117.941 L39.539,95.095 L16.675,95.11 C16.674,107.722 26.906,117.941 39.539,117.941 L39.539,117.941 Z" id="Shape" fill="#FFFFFF"></path>
                <path d="M122.899,87.998 L122.884,46.651 C129.932,50.847 134.65,58.53 134.65,67.326 C134.65,76.115 129.932,83.794 122.899,87.998 L122.899,87.998 Z" id="Shape" fill="#FFFFFF"></path>
                <path d="M46.641,11.748 L87.991,11.753 C83.796,4.71 76.12,0 67.324,0 C58.53,0 50.838,4.71 46.641,11.748 L46.641,11.748 Z" id="Shape" fill="#FFFFFF"></path>
                <path d="M87.691,122.896 L46.332,122.891 C50.531,129.934 58.213,134.652 67.009,134.652 C75.805,134.652 83.487,129.935 87.691,122.896 L87.691,122.896 Z" id="Shape" fill="#FFFFFF"></path>
                <path d="M91.372,95.109 C91.372,108.399 80.61,119.167 67.321,119.167 C54.03,119.167 43.251,108.399 43.251,95.109 L91.372,95.109 L91.372,95.109 Z" id="Shape" fill="#FFFFFF"></path>
                <path d="M95.102,91.382 C108.392,91.382 119.174,80.612 119.174,67.326 C119.174,54.035 108.392,43.256 95.102,43.256 L95.102,91.382 L95.102,91.382 Z" id="Shape" fill="#FFFFFF"></path>
                <path d="M91.372,39.582 C91.372,26.299 80.61,15.526 67.321,15.526 C54.03,15.526 43.251,26.298 43.251,39.582 L91.372,39.582 L91.372,39.582 Z" id="Shape" fill="#FFFFFF"></path>
                <path d="M11.746,87.998 L11.756,46.651 C4.708,50.848 0,58.53 0,67.326 C0,76.115 4.708,83.794 11.746,87.998 L11.746,87.998 Z" id="Shape" fill="#FFFFFF"></path>
                <path d="M117.944,39.567 L95.102,39.555 L95.102,16.718 C107.714,16.718 117.944,26.942 117.944,39.567" id="Shape" fill="#FFFFFF"></path>
                <path d="M60.3,159.441 L67.972,159.441 C70.806,159.441 75.049,160.259 75.049,165.074 C75.049,167.685 73.285,169.507 70.68,169.981 L70.68,170.039 C73.668,170.32 75.707,172.335 75.707,175.048 C75.707,180.579 70.738,181.393 67.972,181.393 L60.3,181.393 L60.3,159.441 L60.3,159.441 Z M64.706,168.315 L66.498,168.315 C68.353,168.315 70.651,167.898 70.651,165.631 C70.651,163.088 68.414,162.899 66.401,162.899 L64.706,162.899 L64.706,168.315 L64.706,168.315 Z M64.706,177.935 L66.779,177.935 C68.825,177.935 71.31,177.431 71.31,174.883 C71.31,172.021 68.98,171.58 66.779,171.58 L64.706,171.58 L64.706,177.935 L64.706,177.935 Z" id="Shape" fill="#F8F8F8"></path>
                <path d="M56.75,181.083 C55.145,181.461 53.413,181.771 51.747,181.771 C44.642,181.771 39.701,178.216 39.701,170.795 C39.701,163.277 44.293,159.064 51.747,159.064 C53.195,159.064 55.116,159.345 56.717,159.975 L56.402,163.69 C54.739,162.746 53.227,162.523 51.656,162.523 C47.127,162.523 44.294,165.981 44.294,170.481 C44.294,174.952 47.062,178.313 51.748,178.313 C53.477,178.313 55.521,177.935 56.562,177.402 L56.75,181.083 L56.75,181.083 Z" id="Shape" fill="#F8F8F8"></path>
                <path d="M94.947,181.083 C93.343,181.461 91.609,181.771 89.948,181.771 C82.838,181.771 77.897,178.216 77.897,170.795 C77.897,163.277 82.489,159.064 89.948,159.064 C91.391,159.064 93.309,159.345 94.913,159.975 L94.599,163.69 C92.933,162.746 91.426,162.523 89.852,162.523 C85.324,162.523 82.49,165.981 82.49,170.481 C82.49,174.952 85.261,178.313 89.949,178.313 C91.674,178.313 93.718,177.935 94.759,177.402 L94.947,181.083 L94.947,181.083 Z" id="Shape" fill="#F8F8F8"></path>
            </g>
        </g>
    </g>
</svg>