<?xml version="1.0" encoding="UTF-8"?>
<svg width="777px" height="255px" viewBox="0 0 777 255" version="1.1" xmlns="http://www.w3.org/2000/svg" xmlns:xlink="http://www.w3.org/1999/xlink">
    <!-- Generator: Sketch 40.3 (33839) - http://www.bohemiancoding.com/sketch -->
    <title>CTV_logo2</title>
    <desc>Created with Sketch.</desc>
    <defs></defs>
    <g id="Page-1" stroke="none" stroke-width="1" fill="none" fill-rule="evenodd">
        <g id="Artboard-Copy-2" transform="translate(-14.000000, -17.000000)" fill="#F8F8F8">
            <g id="CTV_logo2" transform="translate(14.000000, 17.000000)">
                <path d="M637.643375,238.706847 L496.497868,13.0554207 L776.440814,11.7900707 L637.643375,238.706847 Z M553.90229,56.332369 C554.77154,57.811848 555.24501,58.666074 556.18877,60.270182 C564.2127,73.908449 574.84703,91.84152 585.46831,109.7469 C606.71088,145.55762 627.89507,181.13564 627.89507,181.13564 L636.65988,195.87068 L645.36118,181.07212 L719.03639,56.332369 L695.47302,56.332369 L636.59637,155.98444 C630.37153,145.52923 619.77852,127.79007 602.93442,99.39426 C593.69784,83.823222 585.03996,69.089542 577.52917,56.332369 L553.90229,56.332369 Z" id="Combined-Shape"></path>
                <path d="M254.829254,127.67969 C254.829254,197.979653 197.839874,254.969032 127.539912,254.969032 C57.2399496,254.969032 0.250569967,197.979653 0.250569967,127.67969 C0.250569967,57.379728 57.2399496,0.39034841 127.539912,0.39034841 C197.839874,0.39034841 254.829254,57.379728 254.829254,127.67969 L254.829254,127.67969 Z M129.15952,50.384208 C86.59856,50.384167 51.864082,85.118707 51.864062,127.67967 C51.864062,170.24059 86.59856,204.97515 129.15952,204.97513 C163.07168,204.97509 191.96386,182.8786 202.32662,152.38627 L180.54163,152.38627 C171.3641,171.48929 151.84636,184.65093 129.15952,184.65093 C97.59523,184.65091 72.188258,159.24396 72.188258,127.67967 C72.188278,96.11534 97.59523,70.708404 129.15952,70.708404 C152.88265,70.708364 173.15389,85.046027 181.74837,105.5771 L203.21581,105.5771 C193.66384,73.723499 164.04442,50.384188 129.15952,50.384208 Z" id="Combined-Shape"></path>
                <path d="M257.68933,12.836304 L490.08655,12.836304 L490.08655,238.833804 L257.68933,238.833804 L257.68933,12.836304 Z M301,60 L447,60 L447,80 L301,80 L301,60 Z M364,80 L384,80 L384,192 L364,192 L364,80 Z" id="Combined-Shape"></path>
            </g>
        </g>
    </g>
</svg>