<?xml version="1.0" encoding="UTF-8" standalone="no"?>
<svg width="300px" height="300px" viewBox="0 0 300 300" version="1.1" xmlns="http://www.w3.org/2000/svg" xmlns:xlink="http://www.w3.org/1999/xlink" xmlns:sketch="http://www.bohemiancoding.com/sketch/ns">
    <!-- Generator: Sketch 3.4.2 (15857) - http://www.bohemiancoding.com/sketch -->
    <title>Logo Orange</title>
    <desc>Created with Sketch.</desc>
    <defs></defs>
    <g id="Page-1" stroke="none" stroke-width="1" fill="none" fill-rule="evenodd" sketch:type="MSPage">
        <g id="Logo-Orange" sketch:type="MSArtboardGroup" transform="translate(-91.000000, -45.000000)">
            <g sketch:type="MSLayerGroup" transform="translate(91.000000, 45.000000)">
                <rect id="Logo-Background" fill="#FD7400" sketch:type="MSShapeGroup" x="0" y="0" width="300" height="300" rx="150"></rect>
                <g id="Squirrel" transform="translate(147.000000, 157.000000) scale(1, -1) translate(-147.000000, -157.000000) translate(32.000000, 61.000000)" stroke="#FFFFFF" stroke-width="7" fill="#FFFFFF" sketch:type="MSShapeGroup">
                    <path d="M194.028436,160.363636 C194.028436,157.349584 192.806028,154.909091 191.30132,154.909091 C189.795281,154.909091 188.578199,157.349584 188.578199,160.363636 C188.578199,163.373874 189.795281,165.818182 191.30132,165.818182 C192.806028,165.818182 194.028436,163.373874 194.028436,160.363636" id="path22"></path>
                    <path d="M66.5505652,22.2857474 C67.1666186,31.356544 71.4926274,49.3403199 87.7975901,85.8072155 C96.6714861,105.682333 108.097603,124.408344 121.197105,141.791674 C130.363533,153.973198 140.940563,165.291658 152.634422,175.110854 C159.547359,180.918038 165.856638,182.73417 172.353089,181.924123 C168.48943,179.579057 165.160015,174.945639 161.674417,169.101467 C152.821593,154.250611 163.955178,166.67256 165.572783,168.133603 C176.386565,177.851697 187.11234,175.798839 194.640091,171.943411 C202.666139,166.7564 209.845578,160.2563 216.487055,153.466456 C217.840637,152.07939 219.102493,150.795891 220.189573,149.566643 L217.383246,146.712369 L210.804985,147.924356 L217.07336,144.166331 L219.942904,139.456471 C219.272311,139.008911 218.609155,138.56505 217.700569,138.113791 C212.821724,135.689816 208.058156,133.168437 203.362763,130.582946 L203.39623,130.616236 L159.857245,126.642445 C153.593829,126.933421 197.600122,113.330308 199.629256,112.785345 C203.56109,111.747203 203.443333,105.642879 197.540624,105.175592 C189.957094,103.814417 183.073905,102.290494 176.913371,100.735747 L176.930725,100.753008 L133.052105,91.4442526 L92.871044,40.7577706 L93.6234472,41.4136988 C85.8279546,33.0469153 78.1588954,24.5703995 70.7712128,15.9212711 C69.7857753,14.767232 65.9816145,13.9140321 66.5505652,22.2857474 M61.3396464,33.6557212 C56.6804724,16.3817595 57.2820554,-10.0127159 74.7564336,6.10668798 C97.0843244,32.586275 121.299899,58.6156338 148.051777,81.3725118 C151.350581,83.2363333 165.708115,92.7725371 200.035483,98.3923721 C204.302267,99.0942347 207.617163,100.597874 209.999976,104.261375 C213.952352,110.337605 207.867203,116.748115 197.636578,119.227454 C200.918053,121.159118 202.893622,122.139752 206.251841,123.951767 C221.719705,132.301342 239.121051,137.3587 224.476342,155.69224 C212.447156,170.729862 194.201613,189.75293 174.107997,191.865919 C160.657788,193.285679 150.36651,183.14506 140.851347,174.947205 C112.859169,150.854445 78.322608,96.5458196 61.3396464,33.6557212" id="path26"></path>
                    <path d="M55.984532,172.362597 C27.6746165,172.204253 -2.71968387,153.482557 0.194263982,119.159034 C0.968358419,110.044361 5.39228348,105.044156 11.6207854,101.037312 C12.9902423,100.156524 14.1131722,99.5058294 10.7345212,103.349381 C6.05790608,108.673696 0.894400352,118.821316 6.27361711,135.490727 C10.7850592,149.467053 22.8266652,160.092179 33.3533634,163.382764 C56.7845118,170.708645 91.2465059,163.742749 101.037321,138.601938 C102.653305,134.454069 103.305369,129.99446 103.349744,125.562067 C103.373164,123.488751 110.119372,127.717029 110.094719,130.303726 C109.803818,158.785842 81.0008483,172.501148 55.984532,172.362597" id="path34"></path>
                    <path d="M69.1592392,49.1482336 L74.1232227,69.7430981 C63.3363666,48.4421873 31.6601866,47.3110347 23.7061796,70.3628909 C20.8386778,78.6752611 26.5823446,88.9751577 27.498163,90.5363455 C28.8545644,92.716094 30.3520513,94.8490191 31.9609216,96.922799 C35.6056315,101.596505 39.5807786,106.132205 43.5707768,110.675299 C47.5149841,115.284931 51.6646317,119.655517 54.4875802,125.663688 C55.1608305,127.185445 55.7103216,128.914211 55.7994283,130.870933 C55.9157619,132.815333 55.2821146,135.0111 54.1447671,136.594467 C53.5581482,137.39416 52.9839053,138.045989 52.2252611,138.660854 L51.6695821,139.113068 L51.2426127,139.403866 L50.8230688,139.689734 C50.825544,139.68727 50.6027774,139.842526 50.664657,139.795703 L50.5941142,139.838829 L50.4542663,139.921386 L50.1720952,140.084036 C48.6721331,140.951499 47.0224223,141.45793 45.4296407,141.672332 C42.2180882,142.10976 39.2986075,141.502289 36.7268903,140.65947 C34.1452723,139.792006 31.8854284,138.565975 29.8359753,137.273405 C25.7605832,134.642674 22.5057149,131.625035 20.2075057,128.374511 C19.1085235,126.72707 18.071421,125.0747 17.9798392,122.965186 C17.9167219,121.922751 18.5441813,120.654825 19.4513366,120.193985 C20.3201266,119.691251 21.1468384,119.612391 21.8770179,119.581586 C24.7915483,119.581586 26.7642707,120.433031 28.1516119,120.854441 C29.5203892,121.331299 29.4721231,121.460679 28.0526045,121.235188 C26.6615505,121.046663 24.4858629,120.6462 22.0193411,120.999839 C21.4252967,121.103343 20.8164012,121.305423 20.4426482,121.625793 C20.0688953,121.947395 19.9896894,122.296106 20.0688953,122.854289 C20.2582469,123.995299 21.2136684,125.414785 22.365867,126.683943 C24.7395694,129.249368 28.0402286,131.735932 31.8903788,133.744406 C33.8234983,134.737553 35.9261679,135.564354 38.09443,136.127466 C40.2540289,136.684417 42.5410998,136.928391 44.5521876,136.484802 C45.5571128,136.274097 46.4815943,135.904439 47.2835543,135.352417 C47.3627602,135.315451 48.4283273,134.518223 48.5025829,134.356805 C48.7884668,134.08942 49.1102408,133.687725 49.3243443,133.36489 C49.7364626,132.669934 49.8973496,132.039051 49.8230941,131.175284 C49.741413,130.322607 49.4245893,129.292494 48.884999,128.224184 C47.8120063,126.076472 46.1462068,123.862222 44.3368466,121.691099 C42.5510006,119.486707 40.5881789,117.287243 38.5857542,115.058207 C34.5771921,110.597671 30.3421506,106.036094 26.5910077,100.960694 C22.8472904,95.9062402 19.2966376,90.4451633 17.2112942,84.2595572 C15.0875855,78.1441861 14.5492328,71.2500694 16.3400291,65.1741285 C18.1011232,59.2152459 21.2767856,53.8699951 25.4759369,50.0243224 C29.6639499,46.1601669 34.5982312,43.7881965 39.2676677,42.5843445 C43.968044,41.3940466 48.3949123,41.3040965 52.2141228,41.5924296 C56.0407588,41.94114 59.2820135,42.7272788 61.877245,43.5183464 C64.4737141,44.3303612 66.4179719,45.1978247 67.7409582,45.7744907 C69.03548,46.4041411 69.7272942,46.7442262 69.7272942,46.7442262 C69.7272942,46.7442262 68.9946394,46.512574 67.6221494,46.0825388 L68.1023353,48.6270162 C68.7842487,48.9412253 69.1592392,49.1482336 69.1592392,49.1482336" id="path38"></path>
                </g>
            </g>
        </g>
    </g>
</svg>