<?xml version="1.0" encoding="UTF-8"?>
<svg width="1035px" height="156px" viewBox="0 0 1035 156" version="1.1" xmlns="http://www.w3.org/2000/svg" xmlns:xlink="http://www.w3.org/1999/xlink">
    <!-- Generator: Sketch 40.3 (33839) - http://www.bohemiancoding.com/sketch -->
    <title>The-Vancouver-Sun-Logo</title>
    <desc>Created with Sketch.</desc>
    <defs></defs>
    <g id="Page-1" stroke="none" stroke-width="1" fill="none" fill-rule="evenodd">
        <g id="Artboard-Copy-3" transform="translate(0.000000, -28.000000)" fill="#F8F8F8">
            <g id="The-Vancouver-Sun-Logo" transform="translate(-8.000000, 28.000000)">
                <polyline id="path148" points="0.583135 155.820205 1050.80438 155.820205 1050.80438 143.320205 0.583135 143.320205"></polyline>
                <path d="M368.673135,19.878205 C368.779385,19.811955 361.781885,19.811955 356.245635,19.811955 L343.324385,19.811955 L343.324385,22.210705 L345.905635,22.210705 C348.950635,22.210705 349.134385,25.443205 348.119385,29.251955 C344.336885,43.216955 344.153135,44.510705 341.015635,56.283205 L324.131885,56.283205 C323.948135,55.243205 321.825635,45.409455 319.241885,34.329455 C317.489385,26.943205 319.630635,22.210705 325.258135,22.210705 L325.258135,19.811955 L315.290635,19.811955 L305.995635,19.811955 L305.995635,22.210705 C310.148135,22.210705 313.464385,24.038205 315.039385,31.099455 C316.151885,36.084455 333.265635,105.585705 334.465635,110.779455 L337.374385,110.779455 C347.615635,74.308205 352.640635,60.413205 361.958135,26.943205 C362.789385,23.941955 365.550635,22.210705 368.673135,22.278205 L368.673135,19.878205 L368.673135,19.878205 Z M331.881885,88.805705 L325.239385,59.131955 L339.815635,59.131955 L331.881885,88.805705 L331.881885,88.805705 Z" id="path72" transform="translate(337.334983, 65.295705) scale(1, -1) translate(-337.334983, -65.295705) "></path>
                <path d="M104.98801,1.767455 L89.83301,1.767455 L75.09301,1.767455 L75.07801,4.193705 L78.07551,4.193705 C81.29676,4.193705 82.31301,6.306205 82.31301,12.697455 L82.31301,99.666205 C82.31301,104.944955 81.67301,106.693705 78.34051,106.693705 C68.84801,106.693705 65.94676,97.193705 60.07926,78.774955 L58.31926,78.774955 L58.42926,108.528705 C58.53926,109.501205 58.65051,109.639955 59.64926,109.639955 L120.07926,109.639955 C120.96801,109.639955 121.19051,109.501205 121.30176,108.528705 L120.97051,78.774955 L119.21176,78.774955 C114.74551,97.372455 110.92301,106.693705 101.35051,106.693705 C98.01926,106.693705 97.41676,104.944955 97.41676,99.666205 L97.41676,12.697455 C97.41676,6.306205 98.39426,4.193705 101.61551,4.193705 L104.98801,4.193705 L104.98801,1.767455 L104.98801,1.767455 Z" id="path76" transform="translate(89.810510, 55.703705) scale(1, -1) translate(-89.810510, -55.703705) "></path>
                <path d="M182.233135,107.112705 L179.534385,107.112705 C176.859385,107.112705 176.028135,105.842705 176.028135,100.532705 L176.028135,28.746455 C176.028135,23.437705 176.859385,22.167705 179.534385,22.167705 L182.233135,22.167705 L182.233135,19.767705 L169.654385,19.767705 L157.778135,19.767705 L157.778135,22.167705 L159.974385,22.167705 C162.650635,22.167705 163.481885,23.437705 163.481885,28.746455 L163.481885,64.428955 L144.154385,64.428955 L144.154385,28.746455 C144.154385,23.437705 144.984385,22.167705 147.659385,22.167705 L149.614385,22.167705 L149.614385,19.767705 L137.678135,19.767705 L125.831885,19.767705 L125.831885,22.167705 L128.100635,22.167705 C130.776885,22.167705 131.606885,23.437705 131.606885,28.746455 L131.606885,100.532705 C131.606885,105.842705 130.776885,107.112705 128.100635,107.112705 L125.956885,107.112705 L125.956885,109.445205 C127.525635,109.445205 132.663135,109.466455 137.553135,109.466455 C142.443135,109.466455 148.099385,109.445205 149.668135,109.445205 L149.668135,107.112705 L147.659385,107.112705 C144.984385,107.112705 144.154385,105.842705 144.154385,100.532705 L144.154385,67.486455 L163.481885,67.486455 L163.481885,100.532705 C163.481885,105.842705 162.650635,107.112705 159.974385,107.112705 L157.803135,107.112705 L157.803135,109.445205 C159.371885,109.445205 164.514385,109.466455 169.404385,109.466455 C174.293135,109.466455 180.665635,109.445205 182.233135,109.445205 L182.233135,107.112705 L182.233135,107.112705 Z" id="path80" transform="translate(154.032510, 64.617080) scale(1, -1) translate(-154.032510, -64.617080) "></path>
                <path d="M724.088135,87.9775687 C718.460635,100.788819 713.659385,107.413819 703.788135,107.413819 C700.929385,107.413819 699.543135,107.413819 698.253135,107.298819 C697.514385,107.182569 697.330635,106.952569 697.330635,106.375069 C697.330635,100.950069 697.418135,70.7375687 697.418135,66.5825687 L700.924385,66.5825687 C708.580635,66.5825687 711.598135,75.8613187 711.598135,82.9013187 L713.568135,82.8250687 C713.568135,82.0175687 713.349385,73.2075687 713.349385,64.0900687 C713.349385,56.0100687 713.375635,48.8725687 713.375635,47.0263187 L711.531885,47.1025687 C711.161885,56.5663187 708.395635,63.5550687 700.924385,63.5550687 L697.418135,63.5550687 C697.418135,58.0150687 697.379385,34.5038187 697.379385,27.9250687 C697.379385,25.8475687 698.028135,22.7588187 699.781885,22.6438187 C701.625635,22.5288187 704.566885,22.4125687 707.889385,22.4125687 C716.326885,22.4125687 721.549385,30.6350687 727.261885,45.2325687 L728.585635,45.2325687 C727.108135,38.7688187 725.750635,27.4875687 723.905635,20.1013187 C723.811885,19.7550687 723.604385,19.9850687 723.050635,19.9850687 L690.863135,19.9850687 L678.565635,19.9850687 L678.565635,22.3850687 L681.326885,22.3850687 C684.003135,22.3850687 684.833135,23.7700687 684.833135,29.0788187 L684.833135,100.636319 C684.833135,105.946319 684.003135,107.330069 681.326885,107.330069 C681.050635,107.330069 678.918135,107.413819 678.550635,107.413819 L678.568135,109.663819 C681.798135,109.663819 687.499385,109.683819 691.741885,109.683819 C704.011885,109.683819 717.125635,109.547569 721.551885,109.895069 C722.013135,109.895069 722.198135,109.663819 722.290635,109.317569 C723.395635,102.507569 724.395635,93.8638187 725.411885,87.9775687 L724.088135,87.9775687 L724.088135,87.9775687 Z" id="path84" transform="translate(703.568135, 64.902634) scale(1, -1) translate(-703.568135, -64.902634) "></path>
                <path d="M232.646885,87.9775687 C227.019385,100.788819 222.219385,107.413819 212.348135,107.413819 C209.486885,107.413819 208.103135,107.413819 206.811885,107.298819 C206.073135,107.182569 205.889385,106.952569 205.889385,106.375069 C205.889385,100.950069 205.975635,70.7375687 205.975635,66.5825687 L209.480635,66.5825687 C217.138135,66.5825687 220.156885,75.8613187 220.156885,82.9013187 L222.125635,82.8250687 C222.125635,82.0175687 221.909385,73.2075687 221.909385,64.0900687 C221.909385,56.0100687 221.934385,48.8725687 221.934385,47.0263187 L220.091885,47.1025687 C219.721885,56.5663187 216.954385,63.5550687 209.480635,63.5550687 L205.975635,63.5550687 C205.975635,58.0150687 205.938135,34.5038187 205.938135,27.9250687 C205.938135,25.8475687 206.586885,22.7588187 208.340635,22.6438187 C210.185635,22.5288187 213.125635,22.4125687 216.446885,22.4125687 C224.885635,22.4125687 230.106885,30.6350687 235.820635,45.2325687 L237.143135,45.2325687 C235.666885,38.7688187 234.309385,27.4875687 232.463135,20.1013187 C232.370635,19.7550687 232.163135,19.9850687 231.609385,19.9850687 L199.420635,19.9850687 L187.123135,19.9850687 L187.123135,22.3850687 L189.885635,22.3850687 C192.561885,22.3850687 193.391885,23.7700687 193.391885,29.0788187 L193.391885,100.636319 C193.391885,105.946319 192.561885,107.330069 189.885635,107.330069 C189.608135,107.330069 187.479385,107.413819 187.109385,107.413819 L187.126885,109.663819 C190.355635,109.663819 196.056885,109.683819 200.300635,109.683819 C212.571885,109.683819 225.683135,109.547569 230.110635,109.895069 C230.571885,109.895069 230.756885,109.663819 230.849385,109.317569 C231.956885,102.507569 232.954385,93.8638187 233.968135,87.9775687 L232.646885,87.9775687 L232.646885,87.9775687 Z" id="path88" transform="translate(212.126260, 64.902634) scale(1, -1) translate(-212.126260, -64.902634) "></path>
                <path d="M325.966885,108.56833 C321.079385,108.56833 317.306885,106.07208 314.086885,93.70833 C309.311885,75.36958 292.480635,9.40083 290.590635,2.03708 L287.945635,2.03708 C286.169385,9.53958 268.435635,81.89458 264.215635,98.98208 C262.438135,106.20708 261.549385,108.56833 258.884385,108.56833 L254.745635,108.56833 L254.745635,111.17833 C256.633135,111.17833 263.744385,111.23833 269.519385,111.23833 C275.294385,111.23833 282.246885,111.17833 284.134385,111.17833 L284.134385,108.56833 L281.430635,108.56833 C278.209385,108.56833 277.875635,106.62333 279.319385,100.92708 C283.206885,85.08958 295.440635,35.47708 295.440635,35.47708 C295.440635,35.47708 306.408135,78.87833 310.935635,96.83458 C312.934385,104.61458 310.639385,108.56833 307.085635,108.56833 C306.751885,108.56833 303.758135,108.50083 303.314385,108.50083 L303.314385,111.23833 L314.620635,111.23833 C318.730635,111.23833 324.079385,111.17833 325.966885,111.17833 L325.966885,108.56833 L325.966885,108.56833 Z" id="path92" transform="translate(290.356260, 56.637705) scale(1, -1) translate(-290.356260, -56.637705) "></path>
                <path d="M419.584385,21.08108 C404.085635,50.62733 396.641885,64.33608 382.155635,92.15108 L382.155635,37.21358 C382.155635,28.21233 384.278135,24.74983 387.691885,24.74983 L390.338135,24.74983 L390.338135,22.34983 L379.818135,22.34983 C376.220635,22.34983 371.509385,22.39483 370.666885,22.39483 L370.666885,24.86608 C370.308135,24.86608 372.745635,24.74983 373.021885,24.74983 C375.789385,24.74983 378.820635,27.37483 378.820635,36.02983 L378.820635,98.69983 C377.621885,101.00858 376.178135,104.10233 375.163135,105.94858 C373.688135,108.60358 372.284385,109.69483 369.609385,109.69483 L369.609385,112.02733 C370.069385,112.02733 373.933135,112.04858 377.808135,112.04858 C381.960635,112.04858 385.846885,112.02733 386.123135,112.02733 C386.676885,112.02733 386.769385,111.79733 387.045635,111.33483 C390.551885,104.52608 412.970635,62.37483 417.491885,53.71858 L417.491885,96.99858 C417.491885,105.76983 414.601885,109.71608 409.434385,109.71608 L409.341885,112.04858 L419.644385,112.04858 C423.334385,112.04858 428.184385,112.02733 429.751885,112.02733 L429.751885,109.69483 C424.124385,109.69483 420.826885,105.65483 420.826885,96.99858 C420.826885,93.88358 421.051885,26.50608 421.051885,21.08108 L419.584385,21.08108 L419.584385,21.08108 Z" id="path96" transform="translate(399.680635, 66.564830) scale(1, -1) translate(-399.680635, -66.564830) "></path>
                <path d="M979.239385,21.08108 C963.739385,50.62733 956.295635,64.33608 941.810635,92.15108 L941.810635,37.21358 C941.810635,28.21233 943.931885,24.74983 947.346885,24.74983 L949.994385,24.74983 L949.994385,22.34983 L939.473135,22.34983 C935.875635,22.34983 931.163135,22.39483 930.323135,22.39483 L930.323135,24.86608 C929.964385,24.86608 932.400635,24.74983 932.676885,24.74983 C935.445635,24.74983 938.475635,27.37483 938.475635,36.02983 L938.475635,98.69983 C937.276885,101.00858 935.834385,104.10233 934.818135,105.94858 C933.343135,108.60358 931.938135,109.69483 929.264385,109.69483 L929.264385,112.02733 C929.725635,112.02733 933.589385,112.04858 937.464385,112.04858 C941.615635,112.04858 945.501885,112.02733 945.776885,112.02733 C946.331885,112.02733 946.424385,111.79733 946.700635,111.33483 C950.205635,104.52608 972.625635,62.37483 977.145635,53.71858 L977.145635,96.99858 C977.145635,105.76983 974.256885,109.71608 969.090635,109.71608 L968.998135,112.04858 L979.298135,112.04858 C982.989385,112.04858 987.838135,112.02733 989.408135,112.02733 L989.408135,109.69483 C983.780635,109.69483 980.481885,105.65483 980.481885,96.99858 C980.481885,93.88358 980.706885,26.50608 980.706885,21.08108 L979.239385,21.08108 L979.239385,21.08108 Z" id="path100" transform="translate(959.336260, 66.564830) scale(1, -1) translate(-959.336260, -66.564830) "></path>
                <path d="M483.686885,112.287205 L482.034385,112.287205 C481.438135,102.869705 476.678135,108.145955 476.678135,108.145955 C469.469385,114.024705 462.655635,113.272205 462.655635,113.272205 C447.986885,113.272205 431.886885,97.299705 431.886885,66.945955 C431.886885,44.554705 442.033135,21.035955 461.776885,21.035955 C471.581885,21.035955 477.559385,26.559705 482.716885,31.962205 C482.716885,36.115955 484.390635,50.285955 484.390635,52.248455 L483.060635,52.248455 C479.405635,35.203455 475.461885,23.973455 462.593135,23.973455 C453.274385,23.973455 446.373135,35.668455 446.373135,66.945955 C446.373135,96.029705 452.016885,110.533455 462.719385,110.533455 C476.970635,110.533455 479.791885,96.975955 482.838135,85.108455 L484.414385,85.170955 L483.686885,112.287205 L483.686885,112.287205 Z" id="path104" transform="translate(458.150635, 67.169711) scale(1, -1) translate(-458.150635, -67.169711) "></path>
                <path d="M520.601885,21.03658 C503.349385,21.03658 490.495635,41.20908 490.495635,66.94658 C490.495635,92.91408 503.411885,113.27283 520.664385,113.27283 C537.916885,113.27283 551.016885,93.14658 551.016885,67.17783 C551.016885,41.20908 537.855635,21.03658 520.601885,21.03658 M520.789385,110.53533 C508.058135,110.53533 504.703135,88.29783 504.703135,66.94658 C504.703135,45.82658 507.933135,23.97533 520.664385,23.97533 C533.395635,23.97533 536.810635,45.82658 536.810635,67.17783 C536.810635,88.52908 533.521885,110.53533 520.789385,110.53533" id="path108" transform="translate(520.756260, 67.154705) scale(1, -1) translate(-520.756260, -67.154705) "></path>
                <path d="M599.118135,20.75958 C599.118135,29.53208 596.324385,31.11708 591.155635,31.11708 L591.065635,33.44958 L601.365635,33.44958 C605.058135,33.44958 609.209385,33.42958 610.778135,33.42958 L610.778135,31.09708 C605.150635,31.09708 602.424385,29.41583 602.424385,20.75958" id="path112" transform="translate(600.921885, 27.104580) scale(1, -1) translate(-600.921885, -27.104580) "></path>
                <path d="M602.425635,99.31458 L602.425635,50.26083 C602.425635,34.56458 599.274385,21.03708 583.864385,21.03708 C568.550635,21.03708 561.659385,32.60208 561.659385,45.18208 L561.659385,102.88958 C561.659385,108.19958 560.829385,109.58458 558.153135,109.58458 L555.076885,109.58458 L555.076885,111.98458 C556.646885,111.98458 562.960635,112.00458 567.848135,112.00458 C572.645635,112.00458 578.378135,111.98458 579.948135,111.98458 L579.948135,109.58458 L577.714385,109.58458 C574.945635,109.58458 574.208135,108.19958 574.208135,102.88958 L574.208135,45.06833 C574.208135,32.02583 577.630635,24.37708 586.026885,24.37708 C596.041885,24.37708 599.128135,34.46083 599.128135,50.29208 C599.128135,60.10208 599.118135,97.81458 599.118135,99.31458" id="path116" transform="translate(578.751260, 66.520830) scale(1, -1) translate(-578.751260, -66.520830) "></path>
                <path d="M914.454385,20.75958 C914.454385,29.53208 911.659385,31.11708 906.490635,31.11708 L906.400635,33.44958 L916.700635,33.44958 C920.391885,33.44958 924.544385,33.42958 926.111885,33.42958 L926.111885,31.09708 C920.484385,31.09708 917.759385,29.41583 917.759385,20.75958" id="path120" transform="translate(916.256260, 27.104580) scale(1, -1) translate(-916.256260, -27.104580) "></path>
                <path d="M917.76076,99.31458 C917.76076,96.69458 917.76326,62.43958 917.76326,50.26083 C917.76326,34.56458 914.61076,21.03708 899.20201,21.03708 C883.88701,21.03708 876.99326,32.60208 876.99326,45.18208 L876.99326,102.88958 C876.99326,108.19958 876.16326,109.58458 873.48826,109.58458 L870.41201,109.58458 L870.41201,111.98458 C871.98201,111.98458 878.29451,112.00458 883.18576,112.00458 C887.98201,112.00458 893.71201,111.98458 895.28201,111.98458 L895.28201,109.58458 L893.04826,109.58458 C890.27951,109.58458 889.54201,108.19958 889.54201,102.88958 L889.54201,45.06833 C889.54201,32.02583 892.96576,24.37708 901.36201,24.37708 C911.37576,24.37708 914.46576,34.46083 914.46576,50.29208 C914.46576,60.10208 914.45451,97.81458 914.45451,99.31458" id="path124" transform="translate(894.087635, 66.520830) scale(1, -1) translate(-894.087635, -66.520830) "></path>
                <path d="M674.718135,109.650205 C670.660635,109.650205 666.891885,107.687705 664.218135,97.415205 C660.250635,82.181455 646.045635,27.152705 644.479385,21.036455 L642.760635,21.036455 C641.283135,27.268955 626.366885,87.490205 622.863135,101.686455 C621.385635,107.687705 620.648135,109.650205 618.434385,109.650205 L614.771885,109.650205 L614.771885,111.982705 C616.339385,111.982705 622.760635,112.003955 627.558135,112.003955 C632.354385,112.003955 638.104385,111.982705 639.674385,111.982705 L639.674385,109.650205 L637.161885,109.650205 C634.488135,109.650205 634.210635,108.033955 635.411885,103.301455 C638.639385,90.145205 648.788135,48.420205 648.788135,48.420205 C648.788135,48.420205 657.945635,84.843955 661.729385,99.847705 C663.389385,106.310205 661.425635,109.650205 658.475635,109.650205 C658.195635,109.650205 655.816885,109.732705 655.445635,109.732705 L655.445635,112.003955 L665.496885,112.003955 C668.910635,112.003955 673.150635,111.982705 674.718135,111.982705 L674.718135,109.650205 L674.718135,109.650205 Z" id="path128" transform="translate(644.745010, 66.520205) scale(1, -1) translate(-644.745010, -66.520205) "></path>
                <path d="M779.213135,19.924455 C773.739385,20.078205 771.748135,25.534455 771.748135,25.534455 C770.271885,28.996955 765.705635,39.826955 758.046885,57.946955 C756.666885,61.294455 755.281885,63.255705 752.513135,63.255705 C751.683135,63.255705 751.498135,63.024455 751.498135,61.985705 L751.498135,28.861955 C751.498135,23.553205 752.328135,22.283205 755.004385,22.283205 L756.573135,22.283205 L756.573135,19.768205 L745.220635,19.768205 L732.433135,19.768205 L732.433135,22.283205 L735.444385,22.283205 C738.121885,22.283205 738.951885,23.553205 738.951885,28.861955 L738.951885,100.419455 C738.951885,105.728205 738.121885,107.113205 735.444385,107.113205 L732.433135,107.113205 L732.433135,109.446955 C733.814385,109.446955 740.304385,109.466955 745.473135,109.466955 C752.023135,109.466955 759.064385,109.446955 760.816885,109.446955 C770.873135,109.446955 780.191885,101.919455 780.191885,86.569455 C780.191885,74.681955 774.873135,69.249455 769.154385,65.786955 L767.399385,64.851955 L776.479385,45.309455 L785.053135,25.979455 C786.251885,23.210705 789.618135,22.168205 791.276885,22.168205 L791.214385,19.768205 C791.214385,19.768205 783.973135,19.790705 779.213135,19.924455 M755.926885,106.881955 C752.419385,106.881955 751.498135,105.728205 751.498135,102.150705 C751.498135,94.995705 751.439385,77.214455 751.439385,66.365705 C751.748135,65.976955 754.384385,66.141955 755.281885,66.141955 C762.106885,66.141955 766.535635,72.258205 766.535635,86.915705 C766.535635,99.726955 762.663135,106.881955 755.926885,106.881955" id="path132" transform="translate(761.855010, 64.617580) scale(1, -1) translate(-761.855010, -64.617580) "></path>
                <path d="M859.561885,111.610205 C860.450635,97.717705 860.726885,97.317705 861.615635,83.146455 L860.094385,83.146455 C855.763135,100.096455 848.391885,109.006455 840.619385,109.006455 C827.054385,109.006455 827.250635,92.998955 827.960635,90.003955 C829.594385,83.065205 831.566885,80.088955 836.908135,75.435205 C840.128135,72.656455 849.013135,64.736455 851.346885,62.652705 C858.389385,56.427705 865.785635,45.947705 865.785635,30.282705 C865.785635,14.306455 857.039385,0.605205 841.603135,0.605205 C833.494385,0.605205 828.800635,3.608955 825.135635,6.803955 C821.229385,10.126455 820.114385,8.592705 818.664385,1.941455 L816.726885,1.941455 C816.726885,7.637705 815.924385,34.315205 815.924385,36.260205 L817.445635,36.260205 C822.039385,15.520205 830.263135,4.212705 841.544385,4.212705 C851.741885,4.212705 854.408135,16.935205 853.219385,25.083955 C852.253135,31.681455 850.345635,36.257705 844.903135,41.535205 C839.574385,46.676455 831.840635,53.120205 825.579385,60.152705 C820.289385,66.092705 816.581885,74.455205 816.581885,82.241455 C816.581885,102.525205 828.394385,112.211455 839.278135,112.211455 C843.764385,112.211455 848.883135,110.141455 852.909385,107.001455 C854.210635,105.986455 854.881885,105.866455 855.548135,105.866455 C857.005635,105.866455 857.438135,109.308955 857.556885,110.007705 L857.865635,111.610205 L859.561885,111.610205 L859.561885,111.610205 Z" id="path144" transform="translate(840.855010, 56.408330) scale(1, -1) translate(-840.855010, -56.408330) "></path>
            </g>
        </g>
    </g>
</svg>