<?xml version="1.0" encoding="UTF-8"?>
<svg width="493px" height="70px" viewBox="0 0 493 70" version="1.1" xmlns="http://www.w3.org/2000/svg" xmlns:xlink="http://www.w3.org/1999/xlink">
    <!-- Generator: Sketch 40.3 (33839) - http://www.bohemiancoding.com/sketch -->
    <title>VCB-logo</title>
    <desc>Created with Sketch.</desc>
    <defs></defs>
    <g id="Page-1" stroke="none" stroke-width="1" fill="none" fill-rule="evenodd">
        <g id="Artboard-Copy" fill="#F8F8F8">
            <g id="VCB-logo">
                <path d="M338.377,54.192 C338.377,57.25 335.898,59.729 332.84,59.729 L303.492,59.729 C300.434,59.729 297.955,57.25 297.955,54.192 L297.955,23.477 L307.391,37.812 L332.84,37.812 C335.898,37.812 338.377,40.291 338.377,43.349 L338.377,54.192 L338.377,54.192 Z M333.696,27.554 L313.351,27.554 L287.918,0.253 L287.918,42.273 L287.918,55.268 C287.918,63.397 294.507,69.987 302.636,69.987 L333.696,69.987 C341.825,69.987 348.415,63.397 348.415,55.268 L348.415,42.273 C348.415,34.144 341.825,27.554 333.696,27.554 L333.696,27.554 Z" id="Fill-1"></path>
                <path d="M354.019,27.554 L354.019,55.268 C354.019,63.397 360.609,69.987 368.737,69.987 L381.733,69.987 C389.862,69.987 396.451,63.397 396.451,55.268 L396.451,27.554 L386.194,27.554 L386.194,54.412 C386.194,57.47 383.715,59.949 380.657,59.949 L369.813,59.949 C366.755,59.949 364.276,57.47 364.276,54.412 L364.276,27.554 L354.019,27.554" id="Fill-2"></path>
                <path d="M418.56,59.727 L444.697,59.727 L444.697,69.988 L408.122,69.988 C404.632,69.988 401.799,67.154 401.799,63.66 C401.799,61.912 402.51,60.329 403.655,59.184 C403.692,59.148 403.728,59.111 403.765,59.079 L404.103,58.778 L404.148,58.742 L427.949,37.81 L401.821,37.81 L401.821,27.554 L438.392,27.554 C441.887,27.554 444.716,30.387 444.716,33.878 C444.716,35.643 443.99,37.244 442.822,38.39 L442.257,38.887 L418.56,59.727" id="Fill-3"></path>
                <path d="M403.765,59.079 C403.728,59.111 403.692,59.148 403.655,59.184 L403.651,59.18 L403.765,59.079" id="Fill-4"></path>
                <path d="M466.236,59.727 L492.373,59.727 L492.373,69.988 L455.797,69.988 C452.307,69.988 449.474,67.154 449.474,63.66 C449.474,61.912 450.186,60.329 451.331,59.184 C451.367,59.148 451.404,59.111 451.44,59.079 L451.778,58.778 L451.824,58.742 L475.625,37.81 L449.497,37.81 L449.497,27.554 L486.068,27.554 C489.562,27.554 492.391,30.387 492.391,33.878 C492.391,35.643 491.665,37.244 490.498,38.39 L489.932,38.887 L466.236,59.727" id="Fill-5"></path>
                <path d="M451.44,59.079 C451.404,59.111 451.367,59.148 451.331,59.184 L451.326,59.18 L451.44,59.079" id="Fill-6"></path>
                <path d="M173.81,27.554 L146.096,27.554 C137.968,27.554 131.378,34.144 131.378,42.272 L131.378,55.268 C131.378,63.397 137.968,69.986 146.096,69.986 L173.81,69.986 L173.81,59.729 L146.953,59.729 C143.895,59.729 141.416,57.25 141.416,54.192 L141.416,43.349 C141.416,40.29 143.895,37.811 146.953,37.811 L173.81,37.811 L173.81,27.554" id="Fill-7"></path>
                <path d="M42.433,27.554 L27.168,65.809 C27.154,65.845 27.141,65.886 27.122,65.927 C26.214,68.3 23.911,69.988 21.214,69.988 C18.523,69.988 16.219,68.3 15.311,65.927 C15.293,65.886 15.279,65.845 15.265,65.809 L0,27.554 L11.118,27.554 L21.219,53.007 L31.315,27.554 L42.433,27.554" id="Fill-8"></path>
                <polygon id="Fill-9" points="180.66 69.987 190.917 69.987 190.917 27.554 180.66 27.554"></polygon>
                <polyline id="Fill-10" points="235.432 27.554 235.432 37.81 221.334 37.81 221.334 69.988 211.074 69.988 211.074 37.81 196.972 37.81 196.972 27.554 235.432 27.554"></polyline>
                <path d="M114.1,53.404 L114.1,27.547 L124.361,27.547 L124.361,63.731 C124.361,67.184 121.528,69.986 118.033,69.986 C116.286,69.986 114.703,69.282 113.558,68.149 C113.521,68.113 113.485,68.077 113.453,68.041 L113.152,67.707 L113.115,67.662 L92.183,44.115 L92.184,69.964 L81.928,69.964 L81.927,33.784 C81.927,30.327 84.761,27.529 88.251,27.529 C90.016,27.529 91.618,28.246 92.763,29.402 L114.1,53.404" id="Fill-11"></path>
                <path d="M113.453,68.041 C113.485,68.077 113.521,68.113 113.558,68.149 L113.553,68.154 L113.453,68.041" id="Fill-12"></path>
                <polyline id="Fill-13" points="269.267 27.554 260.918 41.194 252.563 27.554 239.55 27.542 255.787 53.996 255.787 70 266.048 70 266.048 53.936 282.28 27.542 269.267 27.554"></polyline>
                <path d="M34.662,69.974 L49.928,31.72 C49.941,31.683 49.955,31.642 49.973,31.601 C50.881,29.229 53.185,27.541 55.881,27.541 C58.573,27.541 60.877,29.229 61.785,31.601 C61.803,31.642 61.817,31.683 61.831,31.72 L77.096,69.974 L65.978,69.974 L55.877,44.521 L45.781,69.974 L34.662,69.974" id="Fill-14"></path>
            </g>
        </g>
    </g>
</svg>